<svg version="1.1" preserveAspectRatio="none" xmlns="http://www.w3.org/2000/svg" width="500" height="500" viewBox="0 0 500 500"><rect width="100%" height="100%" fill="#FFFFFF" fill-opacity="1"/><svg viewBox="-21.8972 222.5961 542.7148 158.4" width="333" height="97.19137933957211" x="83.5px" y="201.4043px" xmlns="http://www.w3.org/2000/svg" xmlns:xlink="http://www.w3.org/1999/xlink" preserveAspectRatio="none"><defs></defs><style>.background {fill:#FFFFFF;fill-opacity:1;}.companyName {fill:#0C0C0C;fill-opacity:1;}.icon3 {fill:#6F5CF3;fill-opacity:1;}.icon3-str {stroke:#6F5CF3;stroke-opacity:1;}.shape {fill:#F55649;fill-opacity:1;}.text {fill:#0C0C0C;fill-opacity:1;}.text-str {stroke:#0C0C0C;stroke-opacity:1;}</style><g opacity="1" transform="rotate(0 101.1027 222.5961)">
<svg width="419.7149" height="120" x="101.1027" y="222.5961" version="1.1" preserveAspectRatio="none" viewBox="0 0 419.7149 120">
  <defs><rect x="0" y="0" width="419.7149" height="120" rx="0px" ry="0px" id="id-B7crM0kCi1698201122205"></rect></defs><use class="companyName text-str" style="stroke-width:0;" xlink:href="#id-B7crM0kCi1698201122205"></use>
</svg>
</g><g opacity="1" transform="rotate(0 187.8296 360.5961)">
<svg width="123.2612" height="20.4" x="187.8296" y="360.5961" version="1.1" preserveAspectRatio="none" viewBox="4.2 -30.28 184.4 30.520000000000003">
  <g transform="matrix(1 0 0 1 0 0)" class="text"><path id="id-6izo4zJp9" d="M15.12-28Q20.56-28 23.68-25.40Q26.80-22.80 26.80-18.24L26.80-18.24Q26.80-13.68 23.68-11.08Q20.56-8.48 15.12-8.48L15.12-8.48L8.20-8.48L8.20 0L4.20 0L4.20-28L15.12-28ZM15-11.96Q18.80-11.96 20.80-13.58Q22.80-15.20 22.80-18.24L22.80-18.24Q22.80-21.28 20.80-22.90Q18.80-24.52 15-24.52L15-24.52L8.20-24.52L8.20-11.96L15-11.96Z M43.12 0.24Q39.96 0.24 37.44-1.16Q34.92-2.56 33.50-5.02Q32.08-7.48 32.08-10.60L32.08-10.60Q32.08-13.72 33.50-16.18Q34.92-18.64 37.44-20.02Q39.96-21.40 43.12-21.40L43.12-21.40Q46.28-21.40 48.78-20.02Q51.28-18.64 52.70-16.18Q54.12-13.72 54.12-10.60L54.12-10.60Q54.12-7.48 52.70-5.02Q51.28-2.56 48.78-1.16Q46.28 0.24 43.12 0.24L43.12 0.24ZM43.12-3.12Q45.16-3.12 46.78-4.06Q48.40-5 49.32-6.70Q50.24-8.40 50.24-10.60L50.24-10.60Q50.24-12.80 49.32-14.50Q48.40-16.20 46.78-17.12Q45.16-18.04 43.12-18.04L43.12-18.04Q41.08-18.04 39.46-17.12Q37.84-16.20 36.90-14.50Q35.96-12.80 35.96-10.60L35.96-10.60Q35.96-8.40 36.90-6.70Q37.84-5 39.46-4.06Q41.08-3.12 43.12-3.12L43.12-3.12Z M65.12-17.64Q66.12-19.48 68.08-20.44Q70.04-21.40 72.84-21.40L72.84-21.40L72.84-17.68Q72.52-17.72 71.96-17.72L71.96-17.72Q68.84-17.72 67.06-15.86Q65.28-14 65.28-10.56L65.28-10.56L65.28 0L61.44 0L61.44-21.20L65.12-21.20L65.12-17.64Z M91.16-4L92.36-1.24Q91.52-0.52 90.28-0.14Q89.04 0.24 87.72 0.24L87.72 0.24Q84.52 0.24 82.76-1.48Q81.00-3.20 81.00-6.40L81.00-6.40L81.00-18.04L77.40-18.04L77.40-21.20L81.00-21.20L81.00-25.84L84.84-25.84L84.84-21.20L90.92-21.20L90.92-18.04L84.84-18.04L84.84-6.56Q84.84-4.84 85.70-3.92Q86.56-3 88.16-3L88.16-3Q89.92-3 91.16-4L91.16-4Z M106.76-26.76Q103.32-26.76 103.32-23.04L103.32-23.04L103.32-21.20L109.48-21.20L109.48-18.04L103.40-18.04L103.40 0L99.56 0L99.56-18.04L95.96-18.04L95.96-21.20L99.56-21.20L99.56-23.08Q99.56-26.24 101.40-28.08Q103.24-29.92 106.56-29.92L106.56-29.92Q107.84-29.92 108.96-29.60Q110.08-29.28 110.88-28.68L110.88-28.68L109.72-25.76Q108.40-26.76 106.76-26.76L106.76-26.76Z M123.88 0.24Q120.72 0.24 118.20-1.16Q115.68-2.56 114.26-5.02Q112.84-7.48 112.84-10.60L112.84-10.60Q112.84-13.72 114.26-16.18Q115.68-18.64 118.20-20.02Q120.72-21.40 123.88-21.40L123.88-21.40Q127.04-21.40 129.54-20.02Q132.04-18.64 133.46-16.18Q134.88-13.72 134.88-10.60L134.88-10.60Q134.88-7.48 133.46-5.02Q132.04-2.56 129.54-1.16Q127.04 0.24 123.88 0.24L123.88 0.24ZM123.88-3.12Q125.92-3.12 127.54-4.06Q129.16-5 130.08-6.70Q131-8.40 131-10.60L131-10.60Q131-12.80 130.08-14.50Q129.16-16.20 127.54-17.12Q125.92-18.04 123.88-18.04L123.88-18.04Q121.84-18.04 120.22-17.12Q118.60-16.20 117.66-14.50Q116.72-12.80 116.72-10.60L116.72-10.60Q116.72-8.40 117.66-6.70Q118.60-5 120.22-4.06Q121.84-3.12 123.88-3.12L123.88-3.12Z M142.20 0L142.20-29.68L146.04-29.68L146.04 0L142.20 0Z M155.36 0L155.36-21.20L159.20-21.20L159.20 0L155.36 0ZM157.28-25.28Q156.16-25.28 155.42-26Q154.68-26.72 154.68-27.76L154.68-27.76Q154.68-28.80 155.42-29.54Q156.16-30.28 157.28-30.28L157.28-30.28Q158.40-30.28 159.14-29.58Q159.88-28.88 159.88-27.84L159.88-27.84Q159.88-26.76 159.14-26.02Q158.40-25.28 157.28-25.28L157.28-25.28Z M177.60 0.24Q174.44 0.24 171.92-1.16Q169.40-2.56 167.98-5.02Q166.56-7.48 166.56-10.60L166.56-10.60Q166.56-13.72 167.98-16.18Q169.40-18.64 171.92-20.02Q174.44-21.40 177.60-21.40L177.60-21.40Q180.76-21.40 183.26-20.02Q185.76-18.64 187.18-16.18Q188.60-13.72 188.60-10.60L188.60-10.60Q188.60-7.48 187.18-5.02Q185.76-2.56 183.26-1.16Q180.76 0.24 177.60 0.24L177.60 0.24ZM177.60-3.12Q179.64-3.12 181.26-4.06Q182.88-5 183.80-6.70Q184.72-8.40 184.72-10.60L184.72-10.60Q184.72-12.80 183.80-14.50Q182.88-16.20 181.26-17.12Q179.64-18.04 177.60-18.04L177.60-18.04Q175.56-18.04 173.94-17.12Q172.32-16.20 171.38-14.50Q170.44-12.80 170.44-10.60L170.44-10.60Q170.44-8.40 171.38-6.70Q172.32-5 173.94-4.06Q175.56-3.12 177.60-3.12L177.60-3.12Z"/></g>
</svg>
</g><g opacity="1" transform="rotate(0 131.1027 252.5961)">
<svg width="359.7149" height="60" x="131.1027" y="252.5961" version="1.1" preserveAspectRatio="none" viewBox="2.4805 -30.918 247.4218 41.2696">
  <g transform="matrix(1 0 0 1 0 0)" class="background"><path id="id-D6z1nYkh8" d="M2.48-15.45L2.48-15.45Q2.48-18.71 3.71-21.53Q4.94-24.36 7.28-26.44Q9.61-28.52 12.98-29.71Q16.35-30.90 20.61-30.90L20.61-30.90Q24.34-30.90 27.45-30.15Q30.57-29.39 33.24-27.85L33.24-27.85L30.39-23.16Q29.59-23.69 28.54-24.10Q27.50-24.51 26.32-24.79Q25.14-25.08 23.88-25.23Q22.62-25.39 21.39-25.39L21.39-25.39Q18.42-25.39 16.09-24.66Q13.77-23.93 12.18-22.61Q10.59-21.29 9.76-19.46Q8.93-17.64 8.93-15.45L8.93-15.45Q8.93-13.18 9.79-11.29Q10.64-9.39 12.28-8.02Q13.91-6.64 16.26-5.87Q18.61-5.10 21.58-5.10L21.58-5.10Q22.93-5.10 24.26-5.29Q25.59-5.49 26.83-5.83Q28.07-6.17 29.22-6.65Q30.37-7.13 31.37-7.70L31.37-7.70L34.22-3.01Q31.72-1.41 28.44-0.50Q25.16 0.41 21.46 0.41L21.46 0.41Q16.76 0.41 13.20-0.81Q9.65-2.03 7.27-4.17Q4.88-6.31 3.68-9.21Q2.48-12.11 2.48-15.45Z M37.56 10.35L35.16 5.06Q36.50 4.24 37.47 3.34Q38.44 2.44 39.06 1.36Q39.69 0.27 39.98-1.06Q40.27-2.40 40.27-4.10L40.27-4.10L40.27-30.53L46.46-30.53L46.46-5.21Q46.46-3.18 46.29-1.51Q46.11 0.16 45.71 1.55Q45.31 2.95 44.64 4.12Q43.96 5.29 42.98 6.35Q41.99 7.40 40.65 8.38Q39.32 9.36 37.56 10.35L37.56 10.35Z M54.38 0L54.38-30.53L70.68-30.53Q73.67-30.53 75.89-29.89Q78.11-29.26 79.57-28.14Q81.04-27.03 81.75-25.50Q82.46-23.96 82.46-22.19L82.46-22.19Q82.46-19.28 80.63-17.09L80.63-17.09Q82.73-15.84 83.77-13.85Q84.80-11.86 84.80-9.32L84.80-9.32Q84.80-7.19 84.09-5.47Q83.38-3.75 81.92-2.53Q80.47-1.31 78.25-0.65Q76.04 0 73.03 0L73.03 0L54.38 0ZM60.57-18.81L73.07-18.81Q73.87-18.81 74.63-18.75L74.63-18.75Q75.94-20 75.94-21.60L75.94-21.60Q75.94-23.26 74.64-24.17Q73.34-25.08 70.84-25.08L70.84-25.08L60.57-25.08L60.57-18.81ZM60.57-5.39L73.18-5.39Q75.68-5.39 76.98-6.46Q78.28-7.54 78.28-9.49L78.28-9.49Q78.28-11.45 76.98-12.54Q75.68-13.63 73.18-13.63L73.18-13.63L60.57-13.63L60.57-5.39Z M89.20-4.06L92.50-9.08Q94.16-8.14 95.87-7.39Q97.58-6.64 99.41-6.12Q101.25-5.61 103.27-5.33Q105.29-5.06 107.58-5.06L107.58-5.06Q110.33-5.06 112.27-5.42Q114.20-5.78 115.42-6.42Q116.64-7.05 117.20-7.93Q117.75-8.81 117.75-9.84L117.75-9.84Q117.75-11.50 116.37-12.47Q114.98-13.44 112.09-13.44L112.09-13.44Q110.82-13.44 109.41-13.27Q108.01-13.11 106.57-12.91Q105.14-12.71 103.74-12.55Q102.34-12.38 101.11-12.38L101.11-12.38Q99.06-12.38 97.18-12.91Q95.29-13.44 93.84-14.49Q92.38-15.55 91.52-17.13Q90.66-18.71 90.66-20.82L90.66-20.82Q90.66-22.07 91.01-23.30Q91.35-24.53 92.10-25.65Q92.85-26.78 94.04-27.74Q95.23-28.71 96.92-29.41Q98.61-30.12 100.83-30.52Q103.05-30.92 105.88-30.92L105.88-30.92Q107.93-30.92 110-30.69Q112.07-30.47 114.03-30.06Q116.00-29.65 117.81-29.07Q119.63-28.50 121.19-27.79L121.19-27.79L118.48-22.79Q117.19-23.36 115.70-23.84Q114.22-24.32 112.60-24.67Q110.98-25.02 109.25-25.22Q107.52-25.43 105.72-25.43L105.72-25.43Q103.16-25.43 101.51-25.06Q99.86-24.69 98.89-24.11Q97.91-23.54 97.53-22.82Q97.15-22.11 97.15-21.41L97.15-21.41Q97.15-20.04 98.38-19.17Q99.61-18.30 102.13-18.30L102.13-18.30Q103.14-18.30 104.46-18.45Q105.78-18.59 107.24-18.77Q108.69-18.95 110.21-19.09Q111.72-19.24 113.14-19.24L113.14-19.24Q115.84-19.24 117.92-18.63Q120-18.03 121.41-16.90Q122.81-15.78 123.54-14.19Q124.26-12.60 124.26-10.63L124.26-10.63Q124.26-7.99 123.04-5.93Q121.82-3.87 119.56-2.45Q117.30-1.04 114.12-0.30Q110.94 0.43 107.03 0.43L107.03 0.43Q104.45 0.43 101.99 0.11Q99.53-0.21 97.28-0.81Q95.02-1.41 92.98-2.24Q90.94-3.07 89.20-4.06L89.20-4.06Z M129.26-7.27L129.26-7.27Q129.26-8.93 129.98-10.29Q130.70-11.66 132.15-12.65Q133.59-13.63 135.75-14.17Q137.91-14.71 140.78-14.71L140.78-14.71Q142.91-14.71 145.26-14.39Q147.62-14.08 150.12-13.44L150.12-13.44Q150.02-14.53 149.45-15.46Q148.89-16.39 147.88-17.06Q146.88-17.73 145.46-18.11Q144.04-18.48 142.25-18.48L142.25-18.48Q141.27-18.48 140.10-18.36Q138.93-18.24 137.68-18.01Q136.43-17.77 135.21-17.42Q133.98-17.07 132.93-16.58L132.93-16.58L131.17-21.33Q132.48-21.80 133.97-22.19Q135.47-22.58 137.03-22.86Q138.59-23.14 140.16-23.30Q141.72-23.46 143.18-23.46L143.18-23.46Q149.65-23.46 152.79-20.16Q155.94-16.86 155.94-10.04L155.94-10.04L155.94 0L150.16 0L150.16-2.17Q149.26-1.64 148.19-1.17Q147.13-0.70 145.88-0.35Q144.63 0 143.19 0.21Q141.76 0.41 140.16 0.41L140.16 0.41Q137.46 0.41 135.42-0.18Q133.38-0.76 132.01-1.80Q130.64-2.83 129.95-4.23Q129.26-5.63 129.26-7.27ZM135.35-7.46L135.35-7.46Q135.35-6.89 135.64-6.38Q135.94-5.86 136.58-5.46Q137.23-5.06 138.23-4.81Q139.24-4.57 140.66-4.57L140.66-4.57Q142.19-4.57 143.61-4.84Q145.04-5.12 146.27-5.57Q147.50-6.02 148.50-6.60Q149.49-7.19 150.16-7.81L150.16-7.81L150.16-8.83Q148.83-9.20 147.53-9.45Q146.23-9.71 145.05-9.85Q143.87-10 142.82-10.06Q141.78-10.12 141.00-10.12L141.00-10.12Q139.38-10.12 138.30-9.90Q137.23-9.69 136.56-9.33Q135.90-8.96 135.63-8.48Q135.35-7.99 135.35-7.46Z M160.57 0L174.69-18.24L162.87-18.24L162.87-23.05L185.41-23.05L171.19-4.80L184.63-4.80L184.63 0L160.57 0Z M188.83-11.52L188.83-11.52Q188.83-14.00 189.83-16.17Q190.84-18.34 192.71-19.96Q194.57-21.58 197.22-22.52Q199.86-23.46 203.16-23.46L203.16-23.46Q206.46-23.46 209.11-22.52Q211.76-21.58 213.62-19.96Q215.49-18.34 216.49-16.17Q217.50-14.00 217.50-11.52L217.50-11.52Q217.50-9.04 216.49-6.88Q215.49-4.71 213.62-3.09Q211.76-1.46 209.11-0.53Q206.46 0.41 203.16 0.41L203.16 0.41Q199.86 0.41 197.22-0.53Q194.57-1.46 192.71-3.09Q190.84-4.71 189.83-6.88Q188.83-9.04 188.83-11.52ZM194.90-11.52L194.90-11.52Q194.90-10.14 195.46-8.90Q196.02-7.66 197.08-6.71Q198.14-5.76 199.68-5.21Q201.21-4.65 203.16-4.65L203.16-4.65Q205.12-4.65 206.65-5.21Q208.18-5.76 209.25-6.71Q210.31-7.66 210.87-8.90Q211.43-10.14 211.43-11.52L211.43-11.52Q211.43-12.91 210.87-14.16Q210.31-15.41 209.25-16.36Q208.18-17.30 206.65-17.86Q205.12-18.42 203.16-18.42L203.16-18.42Q201.21-18.42 199.68-17.86Q198.14-17.30 197.08-16.36Q196.02-15.41 195.46-14.16Q194.90-12.91 194.90-11.52Z M223.34 0L223.34-23.05L229.12-23.05L229.12-21.09Q231.43-22.40 233.53-22.93Q235.63-23.46 237.64-23.46L237.64-23.46Q240.27-23.46 242.52-22.69Q244.77-21.91 246.41-20.39Q248.05-18.87 248.97-16.59Q249.90-14.32 249.90-11.33L249.90-11.33L249.90 0L244.14 0L244.14-10.39Q244.14-12.29 243.60-13.78Q243.07-15.27 242.06-16.30Q241.05-17.32 239.62-17.86Q238.18-18.40 236.41-18.40L236.41-18.40Q235.47-18.40 234.48-18.20Q233.50-18.01 232.55-17.65Q231.60-17.29 230.72-16.75Q229.84-16.21 229.12-15.53L229.12-15.53L229.12 0L223.34 0Z"/></g>
</svg>
</g><g opacity="1" transform="rotate(0 -21.8972 222.5961)">
<svg width="119.9999" height="120" x="-21.8972" y="222.5961" version="1.1" preserveAspectRatio="none" viewBox="0 0 119.9999 120">
  <defs><rect x="0" y="0" width="119.9999" height="120" rx="0px" ry="0px" id="id-tBXipXk0b1698201122206"></rect></defs><use class="companyName text-str" style="stroke-width:0;" xlink:href="#id-tBXipXk0b1698201122206"></use>
</svg>
</g><g opacity="1" transform="rotate(0 -1.8972 247.8296)">
<svg width="79.9999" height="69.5329" x="-1.8972" y="247.8296" version="1.1" preserveAspectRatio="none" viewBox="2358.994384765625 5976 55282.0078125 48049">
  <g transform="matrix(1 0 0 1 0 0)" class="icon3"><defs></defs><g><path class="fil0" d="M6236 5976l47487 0c177,0 331,101 406,249l3452 6039c88,154 76,337 -15,476l-23721 41052c-16,29 -35,55 -57,80l0 0c-2,3 -5,6 -8,8l-3 3 -3 3 -6 6 -1 1 -1 1c-36,35 -77,64 -121,85l-1 0c-3,1 -6,3 -8,4l-3 1 -2 1c-59,26 -121,39 -183,39l0 1 -7035 0c-177,0 -330,-101 -406,-248l-23588 -41239c-88,-154 -76,-338 15,-477l3407 -5857c84,-145 237,-227 393,-227l0 -1zm14316 12626l9417 16338 9383 -16399 -18799 61zm9943 17251l2836 4920 19603 -33886 -46437 0 -2892 4972 39793 74c251,0 454,203 454,454 0,82 -22,159 -60,225l1 1 -13297 23240zm23225 -28509l-19996 34565 -1 0c-39,67 -95,125 -167,166 -217,125 -495,50 -619,-167l-13431 -23302 -5822 19 19763 34037 23213 -40173 -2941 -5145zm-21061 45769l-20155 -34712 1 0c-39,-67 -61,-145 -61,-228 0,-251 203,-454 454,-454l26975 -88 2742 -4792 -39014 -72 23078 40346 5981 0z"></path></g></g>
</svg>
</g></svg></svg>